HIERARCHY
ROOT joint_Root
{
	OFFSET 0.0 0.0 0.0
	CHANNELS 6 Xposition Yposition Zposition Zrotation Xrotation Yrotation 
	JOINT Hips
	{
		OFFSET 4.5925 91.4895 -427.239
		CHANNELS 6 Xposition Yposition Zposition Zrotation Xrotation Yrotation 
		JOINT Spine
		{
			OFFSET 15.7357 0.0 0.0
			CHANNELS 6 Xposition Yposition Zposition Zrotation Xrotation Yrotation 
			JOINT Chest
			{
				OFFSET 8.98455 -0.406207 0.0
				CHANNELS 6 Xposition Yposition Zposition Zrotation Xrotation Yrotation 
				JOINT Neck
				{
					OFFSET 16.3773 0.0 0.0
					CHANNELS 6 Xposition Yposition Zposition Zrotation Xrotation Yrotation 
					JOINT Head
					{
						OFFSET 6.45672 0.0 0.0
						CHANNELS 6 Xposition Yposition Zposition Zrotation Xrotation Yrotation 
						End Site
						{
							OFFSET 0.0 0.0 0.0
						}
					}
				}
				JOINT Shoulder_L
				{
					OFFSET 12.9942 -0.242716 4.98039
					CHANNELS 6 Xposition Yposition Zposition Zrotation Xrotation Yrotation 
					JOINT UpperArm_L
					{
						OFFSET 5.34809 0.0 0.0
						CHANNELS 6 Xposition Yposition Zposition Zrotation Xrotation Yrotation 
						JOINT LowerArm_L
						{
							OFFSET 24.3286 1.87007e-05 0.0
							CHANNELS 6 Xposition Yposition Zposition Zrotation Xrotation Yrotation 
							JOINT Hand_L
							{
								OFFSET 22.2916 0.0 0.0
								CHANNELS 6 Xposition Yposition Zposition Zrotation Xrotation Yrotation 
								End Site
								{
									OFFSET 0.0 0.0 0.0
								}
							}
						}
					}
				}
				JOINT Shoulder_R
				{
					OFFSET 12.9945 -0.242716 -4.98039
					CHANNELS 6 Xposition Yposition Zposition Zrotation Xrotation Yrotation 
					JOINT UpperArm_R
					{
						OFFSET -5.34813 0.0 0.0
						CHANNELS 6 Xposition Yposition Zposition Zrotation Xrotation Yrotation 
						JOINT LowerArm_R
						{
							OFFSET -24.3289 0.000322201 0.0
							CHANNELS 6 Xposition Yposition Zposition Zrotation Xrotation Yrotation 
							JOINT Hand_R
							{
								OFFSET -22.2915 -0.000108084 0.0
								CHANNELS 6 Xposition Yposition Zposition Zrotation Xrotation Yrotation 
								End Site
								{
									OFFSET 0.0 0.0 0.0
								}
							}
						}
					}
				}
			}
		}
		JOINT UpperLeg_L
		{
			OFFSET -2.19248 -6.46944 0.0
			CHANNELS 6 Xposition Yposition Zposition Zrotation Xrotation Yrotation 
			JOINT LowerLeg_L
			{
				OFFSET 39.0811 0.0 -1.23785e-05
				CHANNELS 6 Xposition Yposition Zposition Zrotation Xrotation Yrotation 
				JOINT Foot_L
				{
					OFFSET 40.9854 0.0 -1.26872e-05
					CHANNELS 6 Xposition Yposition Zposition Zrotation Xrotation Yrotation 
					JOINT Toes_L
					{
						OFFSET 11.7543 0.0 0.0
						CHANNELS 6 Xposition Yposition Zposition Zrotation Xrotation Yrotation 
						End Site
						{
							OFFSET 0.0 0.0 0.0
						}
					}
				}
			}
		}
		JOINT UpperLeg_R
		{
			OFFSET -2.19251 6.46944 0.0
			CHANNELS 6 Xposition Yposition Zposition Zrotation Xrotation Yrotation 
			JOINT LowerLeg_R
			{
				OFFSET -39.0811 -0.00228153 -0.0401928
				CHANNELS 6 Xposition Yposition Zposition Zrotation Xrotation Yrotation 
				JOINT Foot_R
				{
					OFFSET -40.9854 0.0 0.0
					CHANNELS 6 Xposition Yposition Zposition Zrotation Xrotation Yrotation 
					JOINT Toes_R
					{
						OFFSET -11.7543 0.0 0.0
						CHANNELS 6 Xposition Yposition Zposition Zrotation Xrotation Yrotation 
						End Site
						{
							OFFSET 0.0 0.0 0.0
						}
					}
				}
			}
		}
	}
}
MOTION
Frames:	4
Frame Time:	0.0333333
0.000000 0.000000 0.000000 0.000000 0.000000 -0.000000 -0.301615 90.340700 3.095760 90.469100 -2.960200 9.648650 15.735700 0.000005 -0.000001 85.159100 82.818300 -85.415800 8.984550 -0.406207 -0.000000 6.544630 -1.205660 -0.443748 16.377300 -0.000001 -0.000001 4.949490 -3.760380 3.029200 6.456720 -0.000001 -0.000000 -8.686420 -2.727320 3.327120 12.994200 -0.242716 4.980390 -92.089300 7.275830 -73.930700 5.348090 -0.000007 -0.000001 -58.847800 43.102800 -18.219800 24.328600 0.000019 0.000005 7.902630 21.599800 -20.660000 22.291600 -0.000001 0.000005 9.338810 5.332190 -0.849564 12.994500 -0.242716 -4.980390 88.367300 11.928100 -82.147700 -5.348130 -0.000001 -0.000004 -62.569200 27.851800 -11.290000 -24.328900 0.000322 -0.000009 1.896480 5.660220 -18.567600 -22.291500 -0.000108 -0.000004 11.201200 5.403730 -3.058980 -2.192480 -6.469440 -0.000000 -175.232000 -13.344300 2.006810 39.081100 -0.000007 -0.000012 -0.187637 0.314760 30.800600 40.985400 -0.000006 -0.000013 0.461392 5.959220 -72.842200 11.754300 -0.000000 0.000003 -0.000119 -0.001192 -16.623100 -2.192510 6.469440 -0.000001 172.089000 20.169600 -176.463000 -39.081100 -0.002282 -0.040193 -0.186850 0.319321 30.773200 -40.985400 0.000008 0.000006 3.440730 12.023000 -74.074800 -11.754300 -0.000006 -0.000006 -0.001476 -0.021959 -17.466000
0.000000 0.000000 0.000000 0.000000 0.000000 -0.000000 -0.244363 90.337800 3.015890 90.373300 -3.089820 9.833840 15.735700 0.000005 -0.000001 85.159100 82.743200 -85.418200 8.984550 -0.406207 -0.000000 6.694330 -1.218470 -0.446332 16.377300 -0.000001 -0.000001 5.143890 -3.646250 2.942730 6.456720 -0.000001 -0.000000 -8.592580 -2.531620 2.967790 12.994200 -0.242716 4.980390 -92.092700 7.244460 -73.839900 5.348090 -0.000007 -0.000001 -59.068400 42.947500 -17.762300 24.328600 0.000019 0.000005 7.763800 21.667300 -20.267400 22.291600 -0.000001 0.000005 9.329830 5.331960 -0.842860 12.994500 -0.242716 -4.980390 88.332800 11.957700 -82.003100 -5.348130 -0.000001 -0.000004 -62.288900 26.754200 -11.444900 -24.328900 0.000322 -0.000009 1.915720 5.409660 -19.544100 -22.291500 -0.000108 -0.000004 11.184500 5.407630 -3.186870 -2.192480 -6.469440 -0.000000 -175.151000 -13.337600 2.100880 39.081100 -0.000007 -0.000012 -0.185363 0.309542 30.914700 40.985400 -0.000006 -0.000013 0.483156 5.853730 -72.865000 11.754300 -0.000000 0.000003 -0.000126 -0.001251 -16.625300 -2.192510 6.469440 -0.000001 172.008000 20.265800 -176.302000 -39.081100 -0.002282 -0.040193 -0.201737 0.344618 30.751600 -40.985400 0.000008 0.000006 3.290300 12.323300 -73.958200 -11.754300 -0.000006 -0.000006 -0.001585 -0.023401 -17.524700
0.000000 0.000000 0.000000 0.000000 0.000000 -0.000000 -0.169523 90.348500 2.932250 90.331700 -3.272630 9.952320 15.735700 0.000005 -0.000001 85.215400 82.712700 -85.487200 8.984550 -0.406207 -0.000000 6.756160 -1.209360 -0.471705 16.377300 -0.000001 -0.000001 5.368500 -3.499140 2.854240 6.456720 -0.000001 -0.000000 -8.418070 -2.311920 2.553650 12.994200 -0.242716 4.980390 -92.099200 7.232030 -73.766500 5.348090 -0.000007 -0.000001 -59.492100 42.659900 -17.083800 24.328600 0.000019 0.000005 7.732430 21.909200 -19.995900 22.291600 -0.000001 0.000005 9.305630 5.331750 -0.836709 12.994500 -0.242716 -4.980390 88.290200 11.936200 -81.787100 -5.348130 -0.000001 -0.000004 -61.766000 25.697400 -11.776000 -24.328900 0.000322 -0.000009 1.814510 4.728140 -21.035200 -22.291500 -0.000108 -0.000004 11.214600 5.406900 -3.162750 -2.192480 -6.469440 -0.000000 -175.130000 -13.438300 2.168000 39.081100 -0.000007 -0.000012 -0.184290 0.307492 30.935900 40.985400 -0.000006 -0.000013 0.516283 5.764310 -72.832900 11.754300 -0.000000 0.000003 -0.000127 -0.001265 -16.625800 -2.192510 6.469440 -0.000001 171.930000 20.177500 -176.224000 -39.081100 -0.002282 -0.040193 -0.218491 0.373890 30.676800 -40.985400 0.000008 0.000006 2.981050 12.577300 -73.765200 -11.754300 -0.000006 -0.000006 -0.001702 -0.024925 -17.586600
0.000000 0.000000 0.000000 0.000000 0.000000 -0.000000 -0.089745 90.361400 2.812680 90.268700 -3.456450 10.037600 15.735700 0.000005 -0.000001 85.134900 82.691400 -85.421400 8.984550 -0.406207 -0.000000 6.796690 -1.233220 -0.499221 16.377300 -0.000001 -0.000001 5.594480 -3.341910 2.772900 6.456720 -0.000001 -0.000000 -8.173480 -2.005400 2.176970 12.994200 -0.242716 4.980390 -92.106600 7.210100 -73.665300 5.348090 -0.000007 -0.000001 -59.816100 42.552900 -16.470400 24.328600 0.000019 0.000005 7.688530 21.985400 -19.829700 22.291600 -0.000001 0.000005 9.297110 5.329580 -0.773221 12.994500 -0.242716 -4.980390 88.230700 11.902900 -81.482300 -5.348130 -0.000001 -0.000004 -61.026100 24.437200 -12.497800 -24.328900 0.000322 -0.000009 1.788380 4.283830 -22.697100 -22.291500 -0.000108 -0.000004 11.415600 5.413940 -3.396110 -2.192480 -6.469440 -0.000000 -175.094000 -13.589700 2.174250 39.081100 -0.000007 -0.000012 -0.181897 0.302984 30.978800 40.985400 -0.000006 -0.000013 0.567616 5.702480 -72.793500 11.754300 -0.000000 0.000003 -0.000122 -0.001222 -16.624200 -2.192510 6.469440 -0.000001 171.926000 20.135200 -176.235000 -39.081100 -0.002282 -0.040193 -0.225689 0.386434 30.650100 -40.985400 0.000008 0.000006 2.879490 12.730900 -73.615000 -11.754300 -0.000006 -0.000006 -0.001802 -0.026208 -17.638800
